<?xml version="1.0" encoding="UTF-8"?>
<svg id="Layer_1" xmlns="http://www.w3.org/2000/svg" version="1.1" viewBox="0 0 211.18 221.71">
  <!-- Generator: Adobe Illustrator 29.4.0, SVG Export Plug-In . SVG Version: 2.1.0 Build 152)  -->
  <defs>
    <style>
      .st0 {
        fill: #fff;
      }
    </style>
  </defs>
  <path class="st0" d="M194,177.23l-2.18-18.15,15.96-8.22c3.14-1.62,4.38-6.22,2.5-9.2-2.02-3.21-5.85-4.23-9.2-2.5l-16.32,8.4-5.32-2.96,9.95-5.12c3.14-1.62,4.38-6.22,2.5-9.2-2.02-3.21-5.85-4.23-9.2-2.5l-17.39,8.95-9.9-5.51,9.14-4.69c3.14-1.61,4.38-6.22,2.5-9.2-2.02-3.21-5.85-4.22-9.2-2.5l-16.6,8.52-22.44-12.49,22.4-12.57,16.59,8.44c3.14,1.6,7.47.87,9.2-2.48,1.61-3.11.88-7.49-2.48-9.2l-9.19-4.68,9.88-5.54,17.39,8.87c3.14,1.6,7.47.87,9.2-2.48,1.61-3.11.88-7.49-2.48-9.2l-9.98-5.09c1.78-.98,3.55-1.97,5.31-2.98l16.31,8.32c3.14,1.6,7.47.87,9.2-2.48,1.61-3.11.88-7.49-2.48-9.2l-16.03-8.18,2.12-18.23c.18-1.56-.9-3.63-1.95-4.69-1.18-1.19-3.14-2.09-4.84-2-1.71.09-3.5.65-4.69,1.95l-1.1,1.43c-.6,1.06-.9,2.19-.9,3.41l-2.07,17.82-5.7,3.2,1.24-10.64c.18-1.56-.9-3.63-1.95-4.69-1.18-1.19-3.14-2.09-4.84-2-1.71.09-3.5.65-4.69,1.95l-1.1,1.43c-.6,1.06-.9,2.19-.9,3.41l-2.17,18.63-9.63,5.4.91-6.93c.24-1.82.27-3.38-.68-5.04-.83-1.45-2.5-2.82-4.16-3.18-1.68-.36-3.54-.26-5.04.68-1.43.9-2.95,2.41-3.18,4.16l-2.44,18.48c-.79.44-21.66,12.15-21.85,12.25l-.4-25.04,14.75-11.4c1.29-1,2.01-3.29,2-4.84-.01-1.62-.74-3.57-1.95-4.69-1.3-1.2-3.02-2.09-4.84-2l-1.71.23c-1.14.31-2.14.88-2.99,1.71l-5.53,4.28-.18-11.04,15.01-11.24c1.51-1.13,2.68-2.25,3.18-4.16.41-1.57.2-3.64-.68-5.04-.94-1.5-2.38-2.8-4.16-3.18-1.6-.34-3.67-.35-5.04.68l-8.56,6.41c-.02-2.18-.05-4.36-.11-6.53l14.36-10.75c1.51-1.13,2.68-2.26,3.18-4.16.41-1.57.2-3.64-.68-5.04-.94-1.5-2.38-2.8-4.16-3.18-1.6-.34-3.67-.35-5.04.68l-14.69,11-15.14-9.74c-2.97-1.91-7.59-.64-9.2,2.48-1.75,3.38-.7,7.16,2.48,9.2l15.4,9.92.1,6.09-9.44-6.07c-2.97-1.91-7.59-.64-9.2,2.48-1.75,3.38-.7,7.16,2.48,9.2l16.42,10.57.18,11.33-8.66-5.59c-2.97-1.92-7.59-.64-9.2,2.48-1.75,3.39-.7,7.15,2.48,9.2l15.64,10.09.41,25.68-22.08-13.11-.99-18.63c-.09-1.74-.7-3.43-1.95-4.69-1.18-1.19-3.14-2.09-4.84-2-3.51.18-6.89,3.02-6.69,6.79l.54,10.26-9.74-5.78-1.01-19.53c-.09-1.74-.7-3.43-1.95-4.69-1.18-1.19-3.14-2.09-4.84-2-3.51.18-6.89,3.02-6.69,6.79l.58,11.15c-1.74-1.05-3.47-2.09-5.23-3.1l-.95-18.32c-.09-1.74-.7-3.43-1.95-4.69-1.18-1.19-3.14-2.09-4.84-2-3.51.18-6.89,3.02-6.69,6.79l.93,17.93-16.78,7.25c-1.5.65-2.79,2.66-3.18,4.16-.41,1.57-.2,3.64.68,5.04,2.18,3.46,5.5,4.1,9.2,2.5l16.55-7.15,5.6,3.33-9.76,4.22c-1.5.65-2.79,2.66-3.18,4.16-.41,1.57-.2,3.64.68,5.04,2.18,3.46,5.5,4.1,9.2,2.5l17.29-7.47,9.49,5.63-8.01,3.32c-1.5.62-2.79,2.68-3.18,4.16-.41,1.57-.2,3.64.68,5.04.94,1.5,2.38,2.8,4.16,3.18l1.74.21c1.18-.01,2.28-.31,3.3-.89l15.68-6.49c.79.47,21.37,12.7,21.54,12.8l-21.5,12.88-15.66-6.42c-1.74-.71-3.22-1.18-5.12-.66-1.6.43-3.32,1.65-4.09,3.15-.8,1.55-1.21,3.4-.66,5.12.5,1.57,1.54,3.43,3.15,4.09l8.06,3.3-9.48,5.68-17.28-7.39c-1.71-.73-3.25-1.17-5.12-.66-1.6.43-3.32,1.65-4.09,3.15-.8,1.55-1.21,3.4-.66,5.12.5,1.59,1.54,3.4,3.15,4.09l9.8,4.19c-1.87,1.11-3.74,2.22-5.6,3.36l-16.53-7.07c-1.71-.73-3.25-1.17-5.12-.66-1.6.43-3.32,1.65-4.09,3.15-.8,1.55-1.21,3.4-.66,5.12.5,1.59,1.54,3.4,3.15,4.09l16.84,7.21-.87,18.01c-.17,3.53,3.29,6.87,6.79,6.69,3.81-.19,6.51-3.02,6.69-6.79l.88-18.26,5.23-3.13-.54,11.25c-.17,3.53,3.29,6.87,6.79,6.69,3.81-.19,6.51-3.02,6.69-6.79l.94-19.46,9.72-5.82-.51,10.34c-.17,3.53,3.3,6.87,6.79,6.69,3.82-.19,6.51-3.02,6.69-6.79l.92-18.56,22.04-13.19-.32,25.68-15.58,10.13c-1.52.99-2.71,2.37-3.18,4.16-.41,1.57-.2,3.64.68,5.04,1.86,2.95,6.04,4.55,9.2,2.5l8.68-5.64-.14,11.33-16.35,10.6c-1.52.99-2.71,2.37-3.18,4.16-.41,1.57-.2,3.64.68,5.04,1.86,2.95,6.04,4.55,9.2,2.5l9.43-6.12c-.04,2.03-.07,4.06-.07,6.09l-15.33,9.94c-1.52.99-2.71,2.37-3.18,4.16-.41,1.57-.2,3.64.68,5.04,1.86,2.95,6.04,4.55,9.2,2.5l15.13-9.81,14.7,10.93c1.29.96,3.63,1.06,5.12.66,1.6-.43,3.32-1.65,4.09-3.15.8-1.55,1.21-3.4.66-5.12l-.66-1.59c-.61-1.05-1.44-1.88-2.49-2.49l-14.43-10.73.08-6.53,8.57,6.37c1.29.96,3.63,1.06,5.12.66,1.6-.43,3.32-1.65,4.09-3.15.8-1.55,1.21-3.4.66-5.12l-.66-1.59c-.61-1.05-1.44-1.88-2.49-2.49l-15.08-11.21.14-11.05,6.91,5.31c1.26.97,3.66,1.06,5.12.66,1.6-.43,3.32-1.65,4.09-3.15.8-1.55,1.21-3.4.66-5.12l-.66-1.59c-.61-1.05-1.44-1.88-2.49-2.49l-13.43-10.31c.01-.93.31-24.87.31-25.06l21.9,12.18,2.28,16.81c.25,1.82.6,3.33,1.95,4.69,1.18,1.19,3.14,2.09,4.84,2,1.71-.09,3.5-.65,4.69-1.95,1.14-1.23,2.24-3.09,2-4.84l-1.16-8.6,9.64,5.36,2.24,18.7c.22,1.81.62,3.35,1.95,4.69,1.18,1.19,3.14,2.09,4.84,2,1.71-.09,3.5-.65,4.69-1.95,1.15-1.25,2.21-3.08,2-4.84l-1.26-10.54c1.89,1.07,3.79,2.13,5.7,3.16l2.14,17.89c.22,1.81.62,3.35,1.95,4.69,1.18,1.19,3.14,2.09,4.84,2,1.71-.09,3.5-.65,4.69-1.95,1.15-1.24,2.21-3.08,1.99-4.84Z"/>
</svg>