<?xml version="1.0" encoding="UTF-8"?>
<svg id="Layer_1" xmlns="http://www.w3.org/2000/svg" version="1.1" viewBox="0 0 235.31 228.7">
  <!-- Generator: Adobe Illustrator 29.4.0, SVG Export Plug-In . SVG Version: 2.1.0 Build 152)  -->
  <defs>
    <style>
      .st0 {
        fill: #fff;
      }
    </style>
  </defs>
  <path class="st0" d="M221.74,119.64c8.29.08,8.23-.05,8.8-.04,1.38.03,2.64-.62,3.51-1.53,2.84-2.97.53-7.89-3.45-7.89h-15.51l15.2-23.52c2.04-3.16-.96-8.11-5.25-6.91-1.18.33-2.2,1.09-2.88,2.15l-18.28,28.3h-13.13l25.52-39.43c1.4-2.16.41-5.22-1.69-6.45-2.24-1.31-5.03-.49-6.45,1.69l-22.6,34.92c-3.23-15.02-11.28-28.27-22.46-38.03l42.01-2.14c1.22-.06,2.43-.58,3.32-1.41,3.13-2.95.5-8.2-3.32-8.01l-46.93,2.39,6.58-11.37,33.62-1.68c1.22-.06,2.43-.58,3.32-1.41,3.13-2.95.5-8.2-3.32-8.01l-28,1.4c1.36-2.36,2.48-4.24,3.46-5.91,4.77-8.08,3.47-6.12,4.26-7.43,1.33-2.25.54-5.22-1.66-6.5-2.15-1.26-5.14-.57-6.45,1.69l-7.24,12.52-10.63-24.71c-.98-2.28-4.38-2.9-6.45-1.69-2.32,1.35-2.76,3.97-1.69,6.44l12.93,30.06-7.64,13.21-18.59-44.85c-1.91-4.61-7.03-4.41-8.89-.6-.52,1.06-.59,2.17-.2,3.11l16.98,41c-13.44-4.34-27.99-4.51-41.55-.45L113.77,7.99c.93-2.26-.98-5.28-3.29-5.8-2.69-.61-4.76.79-5.79,3.29l-18.58,44.85-7.64-13.21,12.93-30.06c1.05-2.44.61-5.1-1.69-6.44-2.05-1.2-5.46-.61-6.45,1.69l-10.63,24.71c-1.04-1.8-1.93-3.37-2.79-4.89-4.12-7.31-3.71-6.31-4.42-7.57-1.36-2.37-4.39-2.97-6.48-1.75-2.19,1.28-2.97,4.24-1.69,6.45l7.75,13.4s-28.12-1.41-28.18-1.41c-2.39,0-4.64,2.31-4.53,4.72.12,2.64,2.06,4.58,4.71,4.71l33.62,1.68,6.58,11.37s-47.06-2.39-47.12-2.39c-2.4,0-4.64,2.31-4.53,4.72.12,2.64,2.06,4.58,4.71,4.71l40.81,2.08c-10.85,9.45-18.76,22.18-22.2,36.64l-21.66-33.47c-2.34-3.62-7.65-2.86-8.66,1.38-.29,1.21-.1,2.42.52,3.38l25.52,39.43h-13.13l-18.28-28.3c-2.34-3.62-7.65-2.86-8.66,1.38-.29,1.22-.1,2.42.52,3.39l15.2,23.53c-7.14,0-10.92-.15-15.31-.01-.06,0-.09,0-.2,0-2.45,0-4.82,2.15-4.71,4.71.12,2.61,2.13,4.72,4.71,4.72h14.43l-16.06,21.52c-1.49,2-.4,5.23,1.69,6.45,2.31,1.35,4.84.46,6.45-1.69l19.6-26.26h15.25l-30.26,39.45c-2.16,2.82.99,8.23,5.24,6.9,1.08-.34,2.08-1.07,2.89-2.13l24.8-32.33c3.11,13.39,10.07,25.32,19.64,34.56l-40.09,5.27c-2.58.34-4.83,2.05-4.71,4.71.11,2.41,2.19,5.04,4.72,4.71l49.32-6.49-7.62,13.22-32.53,3.84c-2.6.31-4.83,2.08-4.71,4.71.11,2.42,2.17,5.01,4.72,4.71l26.69-3.15c-2.74,4.76-5.03,8.45-7.1,12.32-.02.04-.07.12-.1.17-1.28,2.21-.5,5.17,1.69,6.45,2.15,1.26,5.15.57,6.45-1.69l7.75-13.46,12.8,24.97c.51,1.01,1.46,1.75,2.65,2.1,4.15,1.22,7.5-2.93,5.49-6.86l-15.34-29.94,6.56-11.38,21.41,41.86c.51,1.01,1.46,1.75,2.65,2.1,4.17,1.22,7.5-2.94,5.49-6.85l-17.72-34.64c13.54,4.07,28.18,3.96,41.78-.47l-17.96,35.11c-1.18,2.3-.55,5.13,1.69,6.45,2.1,1.23,5.28.59,6.45-1.69l21.41-41.86,6.56,11.38-15.34,29.93c-.57,1.12-.73,2.39-.45,3.57,1.07,4.37,6.9,4.48,8.59,1.18l12.8-24.97c1.37,2.38,2.46,4.31,3.41,6,4.6,8.15,3.52,5.96,4.32,7.41.15.28.94,1.67,2.88,2.19,4.23,1.12,7.29-3.42,5.28-6.9l-7.2-12.49,26.69,3.15c2.43.29,4.82-2.34,4.72-4.71-.12-2.62-1.88-4.38-4.71-4.71l-32.52-3.84-7.62-13.22,49.32,6.49c2.44.32,4.82-2.37,4.72-4.71-.12-2.62-1.83-4.33-4.71-4.71l-41.21-5.42c9.8-9.51,16.84-21.86,19.77-35.7l25.79,33.62c1.63,2.12,4.15,3.03,6.45,1.69,2.05-1.2,3.22-4.46,1.69-6.45l-30.26-39.45h15.25l19.6,26.26c.77,1.04,1.8,1.79,2.9,2.13,4.32,1.31,7.35-4.05,5.23-6.89l-16.06-21.52c.08,0,3.91.01,5.58.03ZM132.34,106.99l-.37.12c-.46-.68-.97-1.32-1.51-1.92l.3-.52c6.19-9.53,16.25-17.14,29.93-22.63-8.32,12.5-17.85,20.88-28.35,24.94ZM171.49,129.94c-14.72,1.15-27.06-1.23-36.71-7.09l-.44-.3c.24-.81.43-1.64.56-2.49l.43-.06c11.19-1,23.34,2.34,36.15,9.93ZM160.52,71.22c-.13.04-.26.08-.39.13-11.89,4.35-21.64,10.13-29.12,17.24.8-10.43-.84-21.83-4.93-34.07-.05-.15-.11-.3-.17-.44,13.38,1.92,25.39,8.11,34.61,17.14ZM117.43,60.96c4.3,14.33,4.74,27.09,1.3,37.98l-.17.46c-.75-.05-1.52-.05-2.27,0l-.17-.46c-3.44-10.89-2.99-23.65,1.3-37.98ZM110.1,115.7c.83-3.87,4.02-6.15,7.33-6.15s6.5,2.27,7.33,6.15c1.03,4.81-2.57,9.39-7.33,9.39-4.74,0-8.38-4.55-7.33-9.39ZM109.01,53.96c-.08.18-.16.37-.22.57-4.09,12.24-5.74,23.64-4.93,34.07-7.48-7.11-17.22-12.89-29.11-17.24-.35-.13-.7-.22-1.06-.29,9.41-9.14,21.68-15.34,35.33-17.1ZM74.18,82.04c13.68,5.49,23.74,13.09,29.93,22.63l.3.52c-.55.6-1.05,1.24-1.51,1.92l-.37-.12c-10.51-4.06-20.04-12.44-28.35-24.94ZM100.52,122.56l-.44.3c-9.65,5.86-21.98,8.24-36.71,7.09,12.81-7.59,24.96-10.94,36.15-9.93l.43.06c.13.85.32,1.68.56,2.49ZM55.23,123.01c-1.61-13.63,1.28-27.24,8.22-38.96.13.3.28.6.46.88,6.88,11,14.66,19.48,23.23,25.36-10.21,1.5-20.82,5.7-31.67,12.55-.09.05-.17.11-.25.17ZM59.68,139.83c12.49,1.3,23.67.4,33.39-2.71-4.9,8.54-8.19,18.84-9.82,30.78-10.41-6.75-18.68-16.53-23.57-28.08ZM93.49,168.16c2.2-14.88,7.23-26.62,14.96-34.92l.29-.29c.67.38,1.37.73,2.08,1.02l-.05.57c-1.53,11.32-7.34,22.62-17.29,33.61ZM100.45,175.65c7.86-8.56,13.55-17.38,16.99-26.38,3.42,8.94,9.04,17.7,16.82,26.2-10.72,3.09-22.48,3.32-33.8.18ZM124.09,134.55l-.05-.57c.72-.29,1.42-.64,2.09-1.02l.29.29c7.73,8.3,12.76,20.04,14.96,34.92-9.95-11-15.76-22.29-17.29-33.61ZM151.55,167.41c-1.66-11.74-4.92-21.87-9.75-30.29,9.49,3.03,20.38,3.96,32.53,2.79-4.77,11.23-12.75,20.78-22.78,27.5ZM178.87,122.51c-10.67-6.66-21.1-10.75-31.15-12.24,8.58-5.88,16.36-14.36,23.24-25.36.03-.04.05-.09.07-.13,6.55,11.4,9.29,24.54,7.84,37.73Z"/>
</svg>