<?xml version="1.0" encoding="UTF-8"?>
<svg id="Layer_1" xmlns="http://www.w3.org/2000/svg" version="1.1" viewBox="0 0 231.48 265.28">
  <!-- Generator: Adobe Illustrator 29.4.0, SVG Export Plug-In . SVG Version: 2.1.0 Build 152)  -->
  <defs>
    <style>
      .st0 {
        fill: #fff;
        fill-rule: evenodd;
      }
    </style>
  </defs>
  <path class="st0" d="M227.05,192.87c-2.19-1.12-4.53-1.18-6.1-.34.3-1.65-.11-3.11-1.14-4.35-1.06-1.27-2.43-1.82-4.06-1.99-.14-3.68-1.66-6.57-4.92-8.3s-6.51-1.35-9.57.58c-3.87-2.28-7.67-4.48-11.59-6.81,1.37-.38,6.37-1.47,11.41-2.71.69-.17,1.27-.1,1.94.25,1.97,1.04,3.95.87,5.7-.47,1.76-1.36,2.45-3.18,1.98-5.38-.46-2.14-1.82-3.55-3.93-4.06-2.08-.5-3.89.08-5.34,1.71-.33.38-.64.63-1.15.74-6.42,1.39-12.78,2.92-19.15,4.46-.44.11-.79.05-1.18-.18-9.94-5.65-7.69-4.44-8.74-5.23.74-.23.38.36,26.58-6.15.5-.12.9-.09,1.32.19,3.4,1.98,7.81-.39,7.98-4.51.09-2.26-1.32-4.34-3.44-5.16-2.14-.82-4.58-.21-6.08,1.59-.35.42-.7.66-1.24.78-11.21,2.48-22.42,5.13-33.63,7.73-.6.14-1.06.05-1.59-.26-7.47-4.3-22.79-13.4-23.1-13.58.14-.34.25-.66.43-1.07,1.5.02,19.59-.08,27.14-.07.76,0,1.37-.21,1.95-.65,2.38-1.82,4.75-3.57,7.16-5.33.77-.56.51-.45,3.23-.41,1.41,3.07,3.59,4.33,6.36,3.73,2.39-.52,4.14-2.68,4.14-5.18,0-3.89-4.08-6.57-7.69-4.79-1.56.77-2.47,2.11-2.92,3.82-.59,0-1.12-.02-1.66.01-.58.04-1.02-.14-1.48-.48-2.36-1.76-4.8-3.45-7.14-5.22-.65-.49-1.32-.69-2.15-.69-8.56,0-26.29.18-26.64.18-.18-.52-.3-.92-.44-1.35.93-.62,7.5-4.38,23.42-13.36.45-.25.87-.25,1.37-.14,11.06,2.6,22.11,5.38,33.18,8.08.69.17,1.15.44,1.58.99,1.36,1.74,3.71,2.39,5.82,1.7,2.96-.97,4.47-4.2,3.3-7.09-1.17-2.89-4.54-4.18-7.37-2.8-.43.21-.82.37-1.35.27-29.3-7.23-25.12-6.08-26.57-6.57.6-.49-.84.47,8.53-4.94.75-.44.25-.2,20.45,4.71.54.13.95.37,1.32.78,1.42,1.57,3.2,2.17,5.26,1.68,2.22-.52,3.59-1.98,4.02-4.19.42-2.19-.31-4.04-2.1-5.35-1.82-1.34-3.82-1.4-5.81-.32-.54.29-.98.33-1.51.2-2.94-.73-10.84-2.71-11.83-2.94-.02-.06-.02-.13-.03-.16,3.92-2.21,7.86-4.46,11.75-6.66,6.07,4.37,14.25.71,14.87-6.92,3.52-.04,5.68-2.65,5.62-5.54,1.57.54,3.65.29,5.6-.81,3.02-1.71,4.46-4.82,3.26-6.93-1.22-2.14-4.64-2.46-7.62-.76-1.86,1.06-3.15,2.66-3.55,4.24-1.16-.81-2.53-1.13-3.96-.89-1.62.27-2.82,1.18-3.75,2.56-3.28-1.76-6.54-1.86-9.66.1s-4.4,4.97-4.28,8.59c-3.89,2.2-7.72,4.38-11.66,6.63.45-1.81,1.28-4.29,3.41-11.43.18-.59.44-.97.98-1.26,2.16-1.19,3.12-3.76,2.43-6.08-.86-2.88-3.84-4.53-6.71-3.66-2.9.88-4.49,3.97-3.54,6.84.16.49.27.93.1,1.45-1.97,6.23-3.92,12.46-5.69,18.73-.13.46-.38.78-.81.99-4.82,2.72-7.71,4.4-8.87,4.98.4-1.58,2.58-8.21,7.91-25.9.18-.59.46-1.01,1.01-1.35,2.43-1.45,3.21-4.56,1.9-7.04-1.32-2.48-4.37-3.51-6.92-2.36-2.58,1.17-3.85,4.09-2.82,6.72.22.57.21,1.05.03,1.62-3.51,10.86-6.72,21.82-10.07,32.73-.19.63-.51,1.06-1.1,1.38-7.52,4.07-22.83,12.92-23.14,13.11-.26-.31-.5-.63-.75-.91.18-.32,8.48-15.07,12.46-22.2.32-.58.43-1.11.36-1.77-.34-3.04-.73-6.04-1.1-9.05-.11-.89.04-.85,1.21-2.92,3.6.17,5.73-1.1,6.48-3.84.65-2.34-.41-4.86-2.55-6.04-3.44-1.9-7.61.42-7.88,4.33-.12,1.75.6,3.19,1.81,4.39-.32.58-.63,1.09-.88,1.6-.19.39-.5.65-.88.81-2.75,1.17-5.42,2.45-8.15,3.65-.85.37-1.41.91-1.85,1.68-3.92,6.89-12,21.35-12.19,21.67-.41-.08-.79-.16-1.18-.25,0-.42.25-18.42.18-27.1,0-.72.24-1.21.73-1.71,7.94-8.28,15.8-16.66,23.81-24.89.34-.35.67-.49,1.15-.57,3.13-.53,5.2-3.42,4.53-6.44-.58-2.64-2.96-4.41-5.66-4.22-2.7.19-4.83,2.37-4.93,5.11-.02.63-.23,1.06-.65,1.48-1.54,1.52-17.57,18.48-18.8,19.53-.12-.82-.06.98,0-10.26,0-.42.16-.72.46-1.02,14.26-14.42,13.42-14.56,14.8-14.79,3.39-.58,5.43-4.1,4.11-7.31-.98-2.38-3.48-3.72-6.05-3.23-2.44.47-4.19,2.62-4.25,5.15-.01.46-.04.84-.41,1.21-9.66,9.58-7.53,7.93-8.54,8.69.05-4.25.07-8.38.08-12.54,3.26-1.7,5.2-4.26,5.36-7.99.16-3.7-1.54-6.45-4.58-8.4,1.49-3.82.11-6.51-2.66-7.69,1.38-1.04,2.35-3.1,2.36-5.46C120.66,2.86,118.68.02,116.25,0s-4.45,2.77-4.48,6.22c-.02,2.4.96,4.5,2.34,5.53-2.74,1.18-4.26,4.46-2.45,7.82-3.03,2.09-4.61,4.91-4.32,8.58.29,3.66,2.32,6.16,5.47,7.69-.02,4.31-.05,8.51-.09,12.86-1.04-.93.85,1.22-8.55-9.05-.32-.35-.46-.68-.45-1.2.03-3.25-2.48-5.68-5.67-5.53-2.59.12-4.77,2.22-5,4.76-.27,2.96,1.7,5.31,4.19,5.82.57.12.97.34,1.34.74,4.51,4.87,9.06,9.72,13.66,14.57.36.38.51.76.51,1.25-.08,4.63-.04,8.3-.11,9.64-1.23-1.16,1.76,1.91-18.71-20.01-.31-.33-.44-.65-.45-1.1-.06-3.33-2.99-5.67-6.01-5.26-2.69.37-4.66,2.57-4.69,5.26-.03,2.71,1.87,4.99,4.56,5.36.58.08.98.29,1.36.7,7.77,8.4,15.48,16.87,23.38,25.15.41.43.55.85.55,1.44-.06,8.8-.2,26.97-.19,27.35-.61.11-1.19.24-1.8.35-1.12-1.83-12.32-20.75-13.44-22.66-.34-.59-.79-1-1.41-1.26-2.74-1.15-5.5-2.32-8.24-3.49-.96-.41-.87-.51-2.09-2.58,1.92-2.79,1.93-5.28.08-7.34-1.67-1.85-4.36-2.3-6.54-1.09-3.37,1.87-3.71,6.66-.48,9,1.47,1.07,3.14,1.16,4.87.73.94,1.56,1.26,1.92,1.21,2.56-.83,9.69-1.32,9.94-.66,10.94.24.42,13.14,22.09,13.55,22.93-.17.28-.3.47-.44.7-.41-.32-23.46-13.79-23.69-13.93-.41-.25-.65-.57-.79-1-1-3.27-7.54-25.44-9.73-33.27-.14-.5-.12-.89.08-1.35,1.32-3.02-.72-6.97-4.39-7.33-2.46-.24-4.77,1.21-5.6,3.55-.85,2.4.04,5.02,2.28,6.39.41.25.64.54.79,1,8.89,28.68,7.41,25.14,7.58,26.25-.51-.14.84.44-8.9-5.13-.36-.2-.5-.46-.61-.83-1.88-6.32-3.54-12.69-5.47-18.99-.28-.92.32-1.36.44-2.85.22-2.59-1.64-4.99-4.14-5.53-2.62-.57-5.2.78-6.18,3.23-.97,2.43-.09,5.22,2.19,6.53.54.31.81.71.97,1.27,1,3.51,3.15,11.03,3.24,11.51l-10.92-6.42c.19-3.72-1.11-6.69-4.23-8.65-3.12-1.96-6.37-1.86-9.57-.18-1.98-2.49-4.34-3.27-6.78-2.28-.69.28-1.28.69-1.77,1.2.05-1.93-1.42-4.11-3.87-5.36-3.06-1.57-6.47-1.09-7.59,1.1-1.12,2.19.48,5.21,3.55,6.81,2.37,1.23,4.92,1.2,6.49.11-.13.61-.16,1.21-.08,1.87.35,2.6,2.22,4.19,5.55,4.72.31,3.58,1.91,6.38,5.21,7.98,3.29,1.59,6.48,1.12,9.51-.9,3.68,2.15,7.32,4.31,11.14,6.54-1.52.47-6.8,1.53-12.23,2.91-.53.14-.9-.03-1.33-.29-1.93-1.2-4.37-.96-6.12.47-1.72,1.4-2.42,3.79-1.69,5.92,1.32,3.87,6.36,4.9,9.09,1.83.33-.38.68-.63,1.15-.74,6.51-1.59,13.06-2.99,19.6-4.57.44-.11.79-.11,1.2.14,9.38,5.61,7.41,4.27,8.35,5.04-.62.18-8.65,1.85-26.65,6.15-.44.11-.78.04-1.18-.18-3.54-1.95-7.85.55-7.92,4.56-.1,5.14,6.36,7.46,9.49,3.5.32-.41.65-.71,1.19-.83,11.21-2.48,22.36-5.1,33.54-7.69.6-.14,1.08-.05,1.59.26,7.55,4.56,23.28,13.68,23.53,13.86-.14.34-.25.66-.38,1.02-.49,0-18.17-.12-26.62-.2-.83,0-1.54.21-2.2.72-2.33,1.77-4.7,3.45-7.09,5.16-.81.57-.76.45-3.22.44-1.63-3.26-3.75-4.46-6.5-3.81-2.4.57-4.1,2.73-4.09,5.22.01,3.91,4.2,6.44,7.7,4.71,1.53-.76,2.43-2.06,2.9-3.7,1.97.07,2.28-.15,3.01.41,2.29,1.75,4.65,3.45,6.92,5.2.86.66,1.7.95,2.78.95,8.36.06,25.95.16,26.4.16.17.42.27.76.42,1.11-.93.62-7.94,4.72-23.81,13.59-.48.27-.93.28-1.43.16-11.18-2.62-22.34-5.48-33.53-8.18-.54-.13-.88-.37-1.22-.79-1.43-1.74-3.28-2.38-5.43-1.86s-3.53,1.96-3.97,4.14c-.44,2.16.26,3.98,1.97,5.3,1.77,1.36,3.74,1.52,5.71.49.54-.28,1.02-.31,1.6-.16,28.64,7.14,25.38,6.11,26.3,6.5-.15.13-.23.2-.35.25-2.85,1.6-5.69,3.23-8.56,4.88-.42.24-.79.17-1.19.07-6.28-1.71-12.59-3.2-18.91-4.68-.49-.12-.84-.35-1.17-.74-1.47-1.73-3.35-2.37-5.54-1.78-2.12.57-3.44,2.02-3.86,4.16-.41,2.14.29,3.97,2.07,5.29s3.77,1.45,5.72.42c.57-.3,1.06-.36,1.69-.2,3.31.86,10.88,2.73,11.53,2.88l-11.01,6.26c-3.1-2-6.34-2.39-9.6-.69-3.26,1.7-4.8,4.58-4.97,8.18-3.37.67-4.95,2.12-5.35,4.76-.11.74-.03,1.47.15,2.16-1.59-1.02-4.16-.95-6.5.38-3.01,1.71-4.46,4.82-3.26,6.93,1.22,2.14,4.63,2.45,7.62.76,2.42-1.37,3.82-3.66,3.61-5.62.33.32.73.6,1.19.8,3.07,1.37,5.47.42,7.32-2.2,3.29,1.54,6.5,1.5,9.49-.52,3.02-2.04,4.23-5.04,3.97-8.68,3.73-2.1,7.38-4.2,11.24-6.39-.42,1.52-1.88,6.5-3.58,11.95-.16.52-.42.86-.9,1.12-2.49,1.38-3.46,4.38-2.25,6.94,1.22,2.59,4.23,3.76,6.88,2.69,2.62-1.06,3.99-3.94,3.07-6.62-.5-1.45-.2-.14,5.75-20.62.15-.51.4-.82.85-1.07,4.6-2.58,7.14-4.1,8.41-4.72-.47,1.75-2.87,10.01-7.97,26.1-.17.52-.43.83-.9,1.12-1.77,1.12-2.61,2.79-2.47,4.85.15,2.26,1.33,3.9,3.46,4.7,2.13.8,4.09.35,5.69-1.26,1.62-1.63,1.99-3.65,1.16-5.77-.55-1.42-.26.36,10.04-34.25.16-.55.46-.91.97-1.19,7.74-4.28,23.61-13.41,23.92-13.57.22.29.42.52.63.79-.3.54-9.42,16.19-13.77,23.49-.33.55-.46,1.09-.39,1.79.34,3.01.64,6.04.94,9.08.09.9-.04.85-1.25,2.9-3.6-.24-5.72,1-6.53,3.72-.7,2.37.36,4.91,2.51,6.12,3.45,1.93,7.71-.46,7.88-4.4.07-1.69-.58-3.06-1.75-4.24.3-.54.6-1.01.85-1.49.24-.44.57-.72,1.01-.93,2.79-1.16,5.51-2.4,8.31-3.54.77-.31,1.26-.82,1.65-1.5,4.26-7.38,13.44-22.94,13.74-23.41.41.08.78.13,1.24.23,0,.27-.18,18.46-.18,27.38,0,.52-.19.88-.53,1.26-7.79,8.48-15.95,16.61-23.85,24.97-.32.33-.66.51-1.15.57-3.41.4-5.59,3.82-4.45,7.07.86,2.46,3.28,3.9,5.93,3.52,2.46-.35,4.35-2.48,4.49-5.08.03-.46.14-.83.48-1.2,20.37-22.17,17.68-18.56,19.01-19.79,0,.49-.07,6.71-.05,9.55,0,.62-.19,1.06-.61,1.49-4.49,4.74-9.12,9.36-13.58,14.13-.46.49-.97.77-1.67.92-2.9.61-4.71,3.53-4.03,6.38.63,2.69,3.13,4.48,5.85,4.18,2.69-.3,4.76-2.58,4.74-5.32,0-.62.2-1.05.62-1.46,4.76-4.76,7.48-7.81,8.53-8.79-.02,4.65-.06,9.17-.1,13.69-3.32,1.55-5.31,4.09-5.61,7.71-.3,3.62,1.29,6.44,4.18,8.53-1.51,3.38-.77,6.35,2.39,7.87-1.38,1.04-2.32,3.09-2.35,5.42-.03,3.44,1.95,6.28,4.39,6.3,2.43.02,4.46-2.77,4.48-6.22.02-2.36-.91-4.38-2.25-5.46,2.6-1.12,4.02-3.67,2.66-7.56,6.59-3.85,6.14-13.16-.56-16.44.05-4.42.06-8.83.09-13.38.98.96,4.41,4.7,8.07,8.55.48.5.7.99.7,1.73-.02,3.24,3.14,5.7,6.28,5.08,2.56-.51,4.39-2.68,4.39-5.24,0-2.57-1.74-4.73-4.35-5.27-.57-.12-.97-.34-1.34-.74-4.39-4.74-8.81-9.48-13.26-14.17-.36-.38-.51-.73-.51-1.25,0-3.1.11-9.75.11-10.16,1.44,1.43-2.08-1.95,18.65,19.96.36.38.5.73.51,1.25.04,2.89,2.18,5.11,5.03,5.31,2.75.2,5.29-1.86,5.65-4.54.39-2.92-1.51-5.63-4.32-6.05-.63-.09-1.08-.36-1.51-.81-7.82-8.36-15.56-16.79-23.38-25.15-.42-.45-.59-.9-.57-1.5.29-8.76.2-26.9.19-27.24.39-.05.68-.1,1.05-.15.23.39,9.11,15.62,13.41,22.85.42.7.9,1.19,1.68,1.5,2.74,1.09,5.43,2.32,8.14,3.5.88.38.77.45,2,2.55-1.95,2.8-1.98,5.35-.08,7.41,1.65,1.8,4.33,2.23,6.46,1.06,3.4-1.87,3.75-6.71.47-9.03-1.46-1.03-3.08-1.11-4.79-.7-.31-.5-.54-.99-.85-1.42s-.4-.88-.33-1.42c.33-2.99.62-6,.97-8.99.09-.73-.03-1.38-.44-2.04-.19-.3-12.86-21.82-13.22-22.64.17-.27.33-.48.43-.66.78.38,8.78,5,23.6,13.8.41.25.64.57.77,1.04.48,1.78,7.07,23.83,9.67,33.12.14.5.12.89-.04,1.37-.25.73-.46,1.51-.44,2.26.08,2.64,1.95,4.72,4.58,5.15,2.38.39,4.81-1.02,5.72-3.32.96-2.41.08-5.08-2.11-6.49-.43-.28-.67-.6-.82-1.09-9-28.81-7.24-24.55-7.62-26.26.36.2,5.76,3.4,8.21,4.78.58.32.85.73,1.03,1.35,1.8,6.24,3.54,12.49,5.39,18.71.2.68.18,1.28-.03,1.99-1.08,3.65,1.76,7.16,5.49,6.89,5.35-.39,6.91-7.45,2.21-10.04-.44-.24-.64-.54-.79-1-4.07-13.25-3.19-10.87-3.35-11.95.39.12-.8-.65,11.35,6.56.28.16.46.37.39.71-.54,6.9,6.26,11.85,12.61,9.24.24-.1.48-.19.71-.29,2.16,2.69,4.33,3.51,6.82,2.54.57-.22,1.08-.51,1.51-.89.13,1.85,1.59,3.82,3.9,5.01,3.06,1.56,6.5,1.1,7.59-1.1,1.15-2.34-.47-5.42-3.53-6.99ZM204.87,77c1.96-1.93,5-2.03,6.82-.2,1.82,1.83,1.67,4.9-.28,6.84-1.95,1.93-5.01,2.03-6.82.2-1.83-1.86-1.7-4.89.28-6.84ZM24.99,84.84c-2.58-.01-4.66-2.27-4.63-5.02s2.11-4.98,4.69-4.95,4.65,2.27,4.63,5.02c-.01,2.74-2.09,4.96-4.69,4.95ZM24.13,190.18c-2.58-.03-4.66-2.27-4.63-5.02s2.11-4.98,4.69-4.95,4.66,2.27,4.63,5.02c-.03,2.75-2.11,4.98-4.69,4.95ZM111.85,27.25c.03-2.75,2.11-4.98,4.68-4.95,2.58.03,4.66,2.27,4.63,5.02s-2.11,4.98-4.68,4.95c-2.58-.03-4.66-2.27-4.63-5.02ZM119.71,238.31c-.01,2.75-2.11,4.98-4.68,4.95s-4.66-2.27-4.63-5.02,2.11-4.96,4.68-4.95c2.57.02,4.65,2.28,4.63,5.02ZM116.52,149.41c-9.1-.06-16.41-7.49-16.35-16.59.06-9.1,7.49-16.41,16.59-16.35,9.1.06,16.42,7.49,16.35,16.59-.07,9.11-7.49,16.41-16.59,16.35ZM206.45,190.5c-2.58-.02-4.66-2.27-4.63-5.02s2.11-4.98,4.68-4.95,4.65,2.27,4.63,5.02c-.01,2.74-2.12,4.96-4.68,4.95Z"/>
</svg>